# xmcd
#
# Track frame offsets:
#	150
#	30105
#	62767
#	92775
#	127355
#	157855
#
# Disc length: 2495 seconds
#
# Revision: 1
# Processed by: cddbd v1.4PL0 Copyright (c) Steve Scherf et al.
# Submitted via: EasyCDDAExtractor 5.0.7
#
DISCID=4409bd06
DTITLE=Grupo Chamego - Forró Bom Demais
DYEAR=1986
DGENRE=Forró
TTITLE0=Isso Aqui Tá bom Demais
TTITLE1=Só Xote
TTITLE2=Forró Damado de Bom
TTITLE3=Xodó no Forró
TTITLE4=Bate, Bate Coração
TTITLE5=Forró do Jeito Que a Gente Gosta
EXTD=
EXTT0=
EXTT1=
EXTT2=
EXTT3=
EXTT4=
EXTT5=
PLAYORDER=
